<?xml version="1.0" standalone="no"?>
<!DOCTYPE svg PUBLIC "-//W3C//DTD SVG 20010904//EN"
 "http://www.w3.org/TR/2001/REC-SVG-20010904/DTD/svg10.dtd">
<svg version="1.0" xmlns="http://www.w3.org/2000/svg"
 width="512.000000pt" height="512.000000pt" viewBox="0 0 512.000000 512.000000"
 preserveAspectRatio="xMidYMid meet">

<g transform="translate(0.000000,512.000000) scale(0.100000,-0.100000)"
fill="#000000" stroke="none">
<path d="M2039 4723 c-36 -22 -59 -64 -59 -105 0 -26 9 -44 40 -76 l40 -41 0
-145 0 -145 -89 -89 c-78 -77 -91 -95 -106 -146 -10 -35 -14 -71 -11 -92 7
-33 6 -34 -27 -34 -48 0 -65 -24 -69 -94 l-3 -59 -43 -12 c-23 -7 -50 -19 -59
-27 -26 -21 -53 -89 -53 -135 l0 -43 -63 0 c-73 0 -98 -17 -99 -69 -1 -31 -2
-31 -55 -31 -63 0 -109 -17 -142 -54 -18 -19 -34 -26 -63 -26 -50 0 -101 -22
-122 -51 -9 -13 -16 -43 -16 -67 0 -103 137 -151 203 -72 16 19 28 48 32 82
10 74 17 83 82 103 32 10 64 20 71 23 8 3 12 -8 12 -35 0 -53 23 -73 82 -73
72 0 78 -5 78 -66 l0 -54 -64 0 c-74 0 -92 -12 -102 -65 l-6 -35 -164 0 -164
0 -146 136 c-156 147 -186 184 -204 254 -14 54 -34 78 -78 97 -93 39 -194 -66
-148 -156 23 -44 54 -60 130 -69 75 -9 59 2 254 -185 68 -65 138 -125 157
-133 25 -10 80 -14 205 -14 l170 0 0 -39 c0 -21 6 -43 13 -49 7 -6 42 -12 77
-14 l65 -3 0 -55 0 -55 -65 -5 c-36 -3 -70 -8 -77 -13 -6 -4 -14 -26 -18 -48
l-7 -41 -152 4 -152 4 -41 33 c-28 23 -56 35 -86 38 -39 5 -48 1 -80 -27 -45
-39 -56 -84 -33 -132 36 -76 123 -88 200 -26 l41 33 157 3 158 3 0 -33 c0 -53
12 -62 87 -68 l68 -5 3 -51 3 -52 -60 -4 c-73 -5 -99 -25 -103 -77 l-3 -37
-73 12 c-70 12 -77 15 -137 73 -37 35 -89 73 -122 89 -52 24 -73 27 -205 32
l-147 5 -36 35 c-30 29 -43 35 -80 35 -55 0 -95 -28 -114 -81 -12 -34 -11 -44
2 -76 20 -47 60 -73 113 -73 33 0 49 7 83 38 l41 37 149 0 c167 0 161 2 247
-90 65 -69 133 -103 212 -105 l65 -1 4 -35 c5 -46 26 -59 100 -59 l63 0 0 -40
c0 -81 44 -139 120 -160 36 -10 37 -11 43 -66 7 -64 18 -81 61 -92 l31 -8 3
-115 3 -114 -198 -193 c-265 -258 -270 -262 -338 -271 -69 -10 -107 -36 -119
-84 -13 -52 3 -97 44 -125 77 -53 180 -1 180 91 1 23 6 51 13 63 7 11 117 123
244 248 183 179 235 236 243 265 5 20 10 82 10 139 l0 102 28 0 c15 0 38 7 50
16 19 13 22 24 22 75 l0 59 58 0 57 0 15 -63 c13 -56 19 -64 52 -80 34 -17 37
-22 44 -74 3 -30 3 -139 -1 -242 -6 -175 -8 -187 -30 -211 -34 -37 -45 -64
-45 -108 0 -33 6 -45 35 -71 29 -25 45 -31 81 -31 39 0 51 5 81 35 33 33 35
39 31 80 -4 33 -15 55 -42 85 l-36 40 0 235 0 235 49 24 c51 26 61 43 61 109
l0 37 60 0 60 0 0 -59 c0 -70 15 -91 66 -91 l34 0 0 -374 c0 -239 4 -385 11
-403 5 -15 82 -100 170 -189 l159 -161 -1 -49 c-1 -27 3 -59 9 -71 14 -25 70
-53 109 -53 75 0 128 79 104 153 -16 48 -39 65 -92 70 -26 3 -57 10 -70 17
-35 19 -291 266 -309 298 -12 22 -15 94 -16 395 l-2 367 38 0 c47 0 62 17 65
78 1 26 3 53 4 60 1 8 20 12 61 12 l60 0 0 -59 c0 -70 15 -91 66 -91 l34 0 0
-246 c0 -256 -1 -263 -46 -317 -28 -34 -30 -57 -8 -103 50 -105 208 -78 221
38 5 46 4 49 -41 92 l-46 45 0 246 0 245 30 0 c47 0 70 30 70 95 l0 54 38 6
c192 30 188 27 238 193 2 7 22 12 54 12 53 0 75 13 110 68 11 17 27 25 60 28
106 12 110 14 171 75 75 76 160 118 256 126 82 7 174 -14 233 -53 73 -48 153
-30 187 42 15 31 16 39 3 76 -20 54 -59 83 -115 83 -37 0 -50 -6 -82 -37 l-38
-37 -155 -3 c-187 -4 -203 -10 -306 -115 l-71 -73 -56 0 c-73 0 -84 5 -107 51
-16 30 -27 39 -55 45 -20 3 -49 4 -66 0 l-30 -6 3 58 3 57 65 5 c36 3 70 8 77
13 6 4 14 25 18 47 l7 40 147 0 148 0 46 -36 c81 -63 166 -54 202 22 19 41 19
58 -1 100 -35 72 -122 83 -196 23 l-40 -32 -159 -5 -159 -5 0 34 c0 54 -12 63
-87 69 l-68 5 -3 52 c-3 58 -7 55 82 67 46 6 73 28 81 67 l7 29 177 0 178 0
39 29 c21 16 75 66 119 111 44 45 106 105 139 133 53 46 64 52 123 59 78 9
110 27 129 75 27 65 -7 134 -76 153 -74 20 -133 -22 -150 -107 -14 -65 -28
-82 -211 -254 l-138 -129 -170 0 -171 0 0 33 c0 52 -12 61 -87 67 l-68 5 0 55
0 55 62 1 c71 1 90 12 99 60 6 33 7 34 58 34 28 0 56 -4 62 -8 19 -12 34 -49
34 -82 0 -39 21 -90 48 -113 46 -42 139 -28 176 25 26 37 21 103 -12 139 -25
28 -37 33 -88 37 -46 4 -65 10 -84 30 -36 36 -81 52 -145 52 l-55 0 0 33 c0
48 -24 65 -95 69 l-60 3 -6 58 c-11 105 -56 139 -186 145 l-83 4 -1 42 c-2 66
-12 90 -48 107 -29 14 -38 27 -60 90 -15 41 -37 90 -50 108 -14 20 -26 53 -29
80 -5 59 -27 88 -77 105 -78 27 -155 -26 -155 -107 0 -76 34 -104 139 -117 82
-11 103 -32 99 -99 -3 -44 -4 -46 -41 -52 -20 -3 -41 -9 -45 -13 -4 -4 -9 -38
-12 -74 l-5 -67 -56 -3 -57 -3 -7 53 c-9 67 -27 95 -68 106 l-32 8 1 155 c0
119 3 160 15 175 7 11 82 86 165 166 147 142 151 145 211 157 88 17 132 73
112 143 -20 76 -110 110 -177 69 -39 -25 -52 -55 -52 -123 0 -47 -3 -54 -43
-92 -199 -192 -290 -284 -298 -304 -5 -13 -9 -97 -9 -188 l0 -164 -33 0 c-46
0 -67 -26 -67 -82 0 -73 -4 -78 -70 -78 l-59 0 2 56 c2 60 -4 69 -72 106 l-31
17 0 138 0 138 34 39 c58 64 59 135 4 181 -56 48 -150 27 -182 -40 -22 -46
-14 -86 29 -134 29 -33 33 -44 38 -121 4 -47 4 -115 0 -152 -6 -65 -7 -68 -33
-68 -48 0 -63 -21 -68 -94 l-4 -66 -59 0 -58 0 -3 63 -3 62 -50 25 c-27 14
-52 26 -53 27 -2 1 2 27 8 58 11 51 21 67 85 136 102 109 119 155 117 316 l-1
123 39 45 c44 50 49 78 25 129 -29 60 -110 84 -166 49z m121 -51 c25 -32 25
-53 -1 -86 -39 -50 -129 -23 -129 38 0 39 11 57 43 71 38 16 62 9 87 -23z
m1026 7 c42 -46 8 -119 -54 -119 -47 0 -72 24 -72 70 0 70 79 101 126 49z
m-846 -329 c10 -5 22 -23 28 -39 13 -36 -2 -69 -41 -91 -24 -13 -30 -13 -54 0
-38 21 -54 56 -42 89 18 47 65 65 109 41z m633 -161 c24 -11 47 -47 47 -73 0
-7 -9 -25 -21 -40 -27 -34 -79 -36 -109 -4 -34 37 -22 100 23 118 30 12 32 12
60 -1z m-1010 -426 c3 -5 2 -23 0 -40 -5 -33 -5 -33 -64 -33 l-59 0 0 40 0 40
59 0 c33 0 62 -3 64 -7z m397 -33 l0 -40 -60 0 -60 0 0 40 0 40 60 0 60 0 0
-40z m405 0 l0 -35 -60 0 c-55 0 -60 2 -63 23 -7 46 3 53 65 50 l58 -3 0 -35z
m405 0 l0 -40 -60 0 -60 0 0 40 0 40 60 0 60 0 0 -40z m251 -139 c18 -22 19
-51 19 -831 l0 -807 -21 -19 c-20 -18 -49 -19 -859 -19 -810 0 -839 1 -859 19
l-21 19 0 806 c0 873 -2 843 53 854 12 3 393 4 845 3 l824 -1 19 -24z m1111
-171 c24 -25 29 -36 24 -58 -21 -89 -146 -78 -146 12 0 25 7 40 26 55 36 29
60 26 96 -9z m-3858 -1 c69 -54 -7 -160 -85 -118 -47 24 -44 104 4 127 33 16
52 14 81 -9z m926 -74 l0 -55 -40 0 -40 0 0 55 0 55 40 0 40 0 0 -55z m2000
-5 l0 -60 -40 0 -40 0 0 60 0 60 40 0 40 0 0 -60z m-2391 -104 c49 -52 1 -136
-68 -121 -59 13 -77 96 -28 130 31 22 70 18 96 -9z m2792 13 c48 -25 44 -105
-7 -128 -35 -16 -48 -14 -78 10 -69 54 7 160 85 118z m-2401 -294 l0 -55 -40
0 -40 0 0 55 0 55 40 0 40 0 0 -55z m2000 -6 l0 -60 -37 3 -38 3 -3 58 -3 57
41 0 40 0 0 -61z m584 -320 c34 -27 36 -79 4 -109 -57 -53 -148 8 -118 81 20
48 72 61 114 28z m-3142 -19 c24 -25 29 -36 24 -58 -21 -89 -146 -78 -146 12
0 25 7 40 26 55 36 29 60 26 96 -9z m558 -45 l0 -55 -39 0 c-41 0 -51 13 -51
71 0 34 6 39 52 39 l38 0 0 -55z m2000 0 l0 -55 -40 0 -40 0 0 55 0 55 40 0
40 0 0 -55z m931 -126 c48 -25 44 -105 -7 -128 -35 -16 -48 -14 -78 10 -69 54
7 160 85 118z m-3842 -23 c49 -52 1 -136 -68 -121 -59 13 -77 96 -28 130 31
22 70 18 96 -9z m911 -237 l0 -60 -42 3 c-43 3 -43 3 -46 47 -5 62 1 71 48 71
l40 0 0 -61z m2000 1 l0 -60 -40 0 -40 0 0 60 0 60 40 0 40 0 0 -60z m-835
-380 l0 -35 -60 0 c-55 0 -60 2 -63 23 -7 46 3 53 65 50 l58 -3 0 -35z m405 0
l0 -40 -60 0 -60 0 0 40 0 40 60 0 60 0 0 -40z m-1210 -5 l0 -35 -60 0 c-41 0
-60 4 -60 13 0 6 -3 22 -6 35 -6 21 -4 22 60 22 l66 0 0 -35z m400 0 l0 -35
-60 0 -60 0 0 35 0 35 60 0 60 0 0 -35z m811 -673 c33 -27 30 -78 -5 -109 -33
-28 -56 -29 -90 -2 -19 15 -26 30 -26 55 0 65 69 97 121 56z m-831 -2 c10 -5
22 -23 28 -39 13 -36 -2 -69 -41 -91 -24 -13 -30 -13 -54 0 -38 21 -54 56 -42
89 18 47 65 65 109 41z m-960 -208 c25 -32 25 -53 -1 -86 -39 -50 -129 -23
-129 38 0 39 11 57 43 71 38 16 62 9 87 -23z m1790 -362 c33 -33 30 -75 -6
-107 -31 -28 -54 -29 -88 -2 -52 41 -23 129 44 129 17 0 39 -9 50 -20z"/>
<path d="M2120 3357 c0 -8 81 -119 180 -248 98 -129 179 -241 180 -249 0 -9
-81 -116 -181 -238 -113 -139 -179 -228 -175 -237 5 -13 60 -15 371 -15 283 0
367 3 370 13 8 20 44 291 40 296 -12 11 -33 -12 -43 -46 -15 -49 -66 -98 -117
-112 -47 -13 -445 -15 -445 -2 0 12 57 85 192 248 65 78 118 148 118 155 0 8
-63 98 -141 199 l-140 184 168 3 c92 2 188 0 212 -3 61 -9 107 -55 116 -116 7
-50 20 -77 31 -67 3 4 3 60 -2 125 l-9 118 -362 3 c-301 2 -363 0 -363 -11z"/>
<path d="M2166 3068 c167 -200 178 -210 186 -188 10 28 -6 90 -33 124 -22 28
-45 35 -35 11 10 -26 -8 -17 -66 35 -63 56 -94 67 -52 18z"/>
<path d="M2709 2915 c-18 -90 -20 -93 -63 -70 -19 11 -37 17 -40 14 -3 -3 20
-40 52 -84 l57 -78 33 73 34 73 110 -109 c61 -60 109 -103 106 -96 -4 17 -261
341 -269 342 -4 0 -13 -29 -20 -65z"/>
<path d="M2017 2202 c-12 -13 -17 -37 -17 -79 0 -65 7 -77 52 -88 21 -5 33 -1
52 19 15 14 26 30 26 36 0 16 -37 12 -44 -5 -7 -20 -42 -19 -50 1 -11 28 -6
81 8 93 14 12 46 5 46 -10 0 -5 9 -9 20 -9 18 0 19 3 9 23 -7 12 -17 25 -23
29 -20 14 -63 8 -79 -10z"/>
<path d="M2176 2143 c-16 -43 -31 -84 -33 -90 -3 -8 3 -13 15 -13 11 0 22 7
26 15 3 9 18 15 35 15 16 0 31 -6 35 -15 6 -16 36 -21 36 -6 0 23 -64 171 -74
171 -6 0 -24 -35 -40 -77z m57 -23 c4 -15 0 -20 -14 -20 -20 0 -23 8 -13 34 7
20 20 13 27 -14z"/>
<path d="M2320 2130 l0 -90 60 0 c47 0 60 3 60 15 0 11 -12 15 -45 15 -38 0
-45 3 -45 20 0 17 7 20 40 20 54 0 56 27 3 32 -30 2 -38 7 -38 23 0 16 8 21
43 23 28 2 42 8 42 18 0 11 -14 14 -60 14 l-60 0 0 -90z"/>
<path d="M2490 2200 c-31 -31 -28 -113 6 -146 19 -20 31 -24 52 -19 29 6 52
30 52 52 0 18 -27 16 -38 -3 -5 -9 -18 -14 -28 -12 -27 5 -34 102 -8 112 9 4
24 0 34 -9 21 -19 40 -19 40 -2 0 22 -34 47 -63 47 -15 0 -36 -9 -47 -20z"/>
<path d="M2650 2200 c-15 -15 -20 -33 -20 -72 0 -29 4 -58 8 -64 24 -37 93
-39 112 -4 18 33 12 125 -8 143 -25 23 -68 21 -92 -3z m68 -22 c13 -13 16 -66
6 -92 -7 -19 -35 -21 -52 -4 -17 17 -15 74 4 92 19 19 26 20 42 4z"/>
<path d="M2800 2131 c0 -74 3 -91 15 -91 12 0 15 13 16 58 l0 57 15 -47 c10
-34 20 -48 33 -48 12 0 22 14 33 48 l16 47 1 -57 c1 -45 5 -58 16 -58 12 0 15
17 15 90 0 89 0 90 -24 90 -19 0 -26 -7 -31 -32 -4 -18 -12 -44 -18 -58 -9
-24 -11 -22 -26 30 -13 43 -22 56 -39 58 -21 3 -22 1 -22 -87z"/>
<path d="M3000 2130 c0 -72 3 -90 14 -90 9 0 16 12 18 33 3 29 7 32 38 35 45
5 60 18 60 53 0 41 -24 59 -81 59 l-49 0 0 -90z m90 45 c17 -20 4 -35 -31 -35
-21 0 -29 5 -29 18 0 10 3 22 7 25 11 12 40 8 53 -8z"/>
</g>
</svg>
