<svg width="516" height="557" viewBox="0 0 516 557" fill="none" xmlns="http://www.w3.org/2000/svg">
<path d="M164.606 367.441L220.855 405.049" stroke="#666565"/>
<path d="M165.105 367.473L331.427 319.827M220.855 405.049L234.343 652.385" stroke="#666565"/>
<path d="M219.326 405.454C214.061 406.325 73.8447 640.267 56 650.5" stroke="#666565"/>
<path d="M87.5 477.31L9 632.31" stroke="#666565"/>
<path d="M328.389 320.723C330.91 319.857 332.033 319.364 331.458 319.328C331.001 319.299 329.949 319.789 328.389 320.723Z" fill="#8B8B92"/>
<path d="M166.103 367.536C223.217 351.592 336.249 319.63 331.458 319.328C326.668 319.027 256.434 375.726 221.915 404.114L19 587.5" stroke="#666565"/>
<path d="M434.946 314.82L331.075 619.898" stroke="#666565"/>
<path d="M163.545 368.377L227.099 600.327" stroke="#666565"/>
<path d="M164.543 368.439C171.154 371.661 203.882 393.46 219.42 403.957L199.5 772.5" stroke="#666565"/>
<path d="M221.947 403.615C224.741 403.791 695.486 497.764 781 513.5" stroke="#666565"/>
<path d="M91 475L172.25 572.326" stroke="#666565"/>
<path d="M713 80L422.214 119.134L295.639 140.224L391.187 174.294" stroke="#666565"/>
<path d="M294.983 142.688L378.736 260.682L416.348 124.777" stroke="#666565"/>
<path d="M295.077 141.191L296.912 223.469L330.118 316.739L393.82 426.958" stroke="#666565"/>
<path d="M295.046 141.69L330.928 319.796L315.5 732.5" stroke="#666565"/>
<path d="M379.172 261.712C382.639 263.934 417.176 297.336 434.01 313.759" stroke="#666565"/>
<path d="M296.629 227.96L379.203 261.213L423 669.5" stroke="#666565"/>
<path d="M382.197 261.401L843.5 486" stroke="#666565"/>
<path d="M379.172 261.712L574.5 178.5" stroke="#666565"/>
<path d="M418.033 121.877L449.905 164.714L603.5 339.5" stroke="#666565"/>
<path d="M297.659 227.523L163.608 367.379L141.5 582.5" stroke="#666565"/>
<path d="M331.022 318.299C336.611 318.65 402.675 315.461 435.009 313.822L512 613" stroke="#666565"/>
<circle cx="295.014" cy="142.189" r="5.5" transform="rotate(3.60173 295.014 142.189)" fill="#8B8B92" stroke="#666565"/>
<circle cx="416.725" cy="118.788" r="5.5" transform="rotate(3.60173 416.725 118.788)" fill="#8B8B92" stroke="#666565"/>
<circle cx="219.42" cy="403.957" r="5.5" transform="rotate(3.60173 219.42 403.957)" fill="#8B8B92" stroke="#666565"/>
<circle cx="434.415" cy="315.288" r="5.5" transform="rotate(3.60173 434.415 315.288)" fill="#8B8B92" stroke="#666565"/>
<circle cx="330.928" cy="319.796" r="5.5" transform="rotate(3.60173 330.928 319.796)" fill="#8B8B92" stroke="#666565"/>
<circle cx="164.48" cy="369.437" r="5.5" transform="rotate(3.60173 164.48 369.437)" fill="#8B8B92" stroke="#666565"/>
<circle cx="88.3651" cy="475.365" r="5.5" transform="rotate(3.60173 88.3651 475.365)" fill="#8B8B92" stroke="#666565"/>
<circle cx="297.659" cy="227.523" r="5.5" transform="rotate(3.60173 297.659 227.523)" fill="#8B8B92" stroke="#666565"/>
<circle cx="379.671" cy="261.743" r="5.5" transform="rotate(3.60173 379.671 261.743)" fill="#8B8B92" stroke="#666565"/>
<path d="M393.522 177.53L427.313 214.128L482.152 309.28L487.138 402.865L327.05 658" stroke="#D7D7D7"/>
<path d="M550.569 28.6309L429.748 212.836" stroke="#D7D7D7"/>
<path d="M544.528 1L391.991 169.855" stroke="#D7D7D7"/>
<path d="M429.014 217.442L348.194 312.488L395.8 353.744L448.942 361.578L487.138 406.49L408.532 399.701L487.138 572.037" stroke="#D7D7D7"/>
<path d="M408.604 399.498L395.314 352.526L259.088 413.59L318.894 456.909L408.604 399.498Z" stroke="#D7D7D7"/>
<path d="M396.13 352.526L319.499 457.854L533.956 516.776" stroke="#D7D7D7"/>
<path d="M408.604 401.647L357.255 558.222" stroke="#D7D7D7"/>
<path d="M317.988 458.444L467.504 599.668" stroke="#D7D7D7"/>
<path d="M317.988 458.444L192.636 638.044" stroke="#D7D7D7"/>
<path d="M265.129 478.4L319.499 458.444" stroke="#D7D7D7"/>
<path d="M197.167 390.902L342.152 573.572" stroke="#D7D7D7"/>
<path d="M259.088 413.927L274.191 562.827" stroke="#D7D7D7"/>
<path d="M485.628 308.009L603.428 234.327" stroke="#D7D7D7"/>
<path d="M197.167 390.902L99 561.292" stroke="#D7D7D7"/>
<path d="M148.839 472.259L266.639 561.292" stroke="#D7D7D7"/>
<path d="M488.648 191.346L484.117 311.079" stroke="#D7D7D7"/>
<path d="M429.748 215.907L597.387 117.664" stroke="#D7D7D7"/>
<path d="M450.891 361.736L614 321.825" stroke="#D7D7D7"/>
<path d="M428.237 217.442L488.56 192.784L589.836 175.995" stroke="#D7D7D7"/>
<path d="M195.657 390.902V558.222" stroke="#D7D7D7"/>
<path d="M485.628 407.787L565.672 493.75" stroke="#D7D7D7"/>
<path d="M485.628 406.252L588.325 455.374" stroke="#D7D7D7"/>
<path d="M487.138 406.252L614 295.729" stroke="#D7D7D7"/>
<path d="M429.748 217.442L447.871 360.201" stroke="#D7D7D7"/>
<path d="M449.381 361.736L410.114 400.112" stroke="#D7D7D7"/>
<path d="M399.542 355.596L485.628 406.252" stroke="#D7D7D7"/>
<ellipse cx="488.648" cy="193.648" rx="4.53079" ry="3.83762" fill="url(#paint0_linear_57_174)"/>
<ellipse cx="266.639" cy="479.935" rx="4.53079" ry="4.60514" fill="url(#paint1_linear_57_174)"/>
<ellipse cx="151.104" cy="473.027" rx="3.77566" ry="3.83762" fill="url(#paint2_linear_57_174)"/>
<ellipse cx="429.748" cy="217.442" rx="4.53079" ry="4.60514" fill="url(#paint3_linear_57_174)"/>
<ellipse cx="487.138" cy="405.485" rx="4.53079" ry="3.83762" fill="url(#paint4_linear_57_174)"/>
<ellipse cx="196.412" cy="390.902" rx="3.77566" ry="4.60514" fill="url(#paint5_linear_57_174)"/>
<ellipse cx="391.991" cy="173.693" rx="4.53079" ry="3.83762" fill="url(#paint6_linear_57_174)"/>
<ellipse cx="346.683" cy="311.847" rx="4.53079" ry="3.83762" fill="url(#paint7_linear_57_174)"/>
<ellipse cx="319.499" cy="458.444" rx="4.53079" ry="4.60514" fill="url(#paint8_linear_57_174)"/>
<ellipse cx="408.604" cy="400.88" rx="4.53079" ry="3.83762" fill="url(#paint9_linear_57_174)"/>
<ellipse cx="396.522" cy="353.293" rx="4.53079" ry="3.83762" fill="url(#paint10_linear_57_174)"/>
<ellipse cx="449.381" cy="361.736" rx="4.53079" ry="4.60514" fill="url(#paint11_linear_57_174)"/>
<ellipse cx="484.117" cy="311.847" rx="4.53079" ry="3.83762" fill="url(#paint12_linear_57_174)"/>
<ellipse cx="259.088" cy="413.16" rx="4.53079" ry="3.83762" fill="url(#paint13_linear_57_174)"/>
<defs>
<linearGradient id="paint0_linear_57_174" x1="488.648" y1="189.811" x2="488.648" y2="197.486" gradientUnits="userSpaceOnUse">
<stop stop-color="#1010FF"/>
<stop offset="0.575" stop-color="#0A0A99"/>
</linearGradient>
<linearGradient id="paint1_linear_57_174" x1="266.639" y1="475.329" x2="266.639" y2="484.54" gradientUnits="userSpaceOnUse">
<stop stop-color="#1010FF"/>
<stop offset="0.575" stop-color="#0A0A99"/>
</linearGradient>
<linearGradient id="paint2_linear_57_174" x1="151.104" y1="469.189" x2="151.104" y2="476.864" gradientUnits="userSpaceOnUse">
<stop stop-color="#1010FF"/>
<stop offset="0.575" stop-color="#0A0A99"/>
</linearGradient>
<linearGradient id="paint3_linear_57_174" x1="429.748" y1="212.836" x2="429.748" y2="222.047" gradientUnits="userSpaceOnUse">
<stop stop-color="#1010FF"/>
<stop offset="0.575" stop-color="#0A0A99"/>
</linearGradient>
<linearGradient id="paint4_linear_57_174" x1="487.138" y1="401.647" x2="487.138" y2="409.322" gradientUnits="userSpaceOnUse">
<stop stop-color="#1010FF"/>
<stop offset="0.575" stop-color="#0A0A99"/>
</linearGradient>
<linearGradient id="paint5_linear_57_174" x1="196.412" y1="386.297" x2="196.412" y2="395.507" gradientUnits="userSpaceOnUse">
<stop stop-color="#1010FF"/>
<stop offset="0.575" stop-color="#0A0A99"/>
</linearGradient>
<linearGradient id="paint6_linear_57_174" x1="391.991" y1="169.855" x2="391.991" y2="177.53" gradientUnits="userSpaceOnUse">
<stop stop-color="#1010FF"/>
<stop offset="0.575" stop-color="#0A0A99"/>
</linearGradient>
<linearGradient id="paint7_linear_57_174" x1="346.683" y1="308.009" x2="346.683" y2="315.685" gradientUnits="userSpaceOnUse">
<stop stop-color="#1010FF"/>
<stop offset="0.575" stop-color="#0A0A99"/>
</linearGradient>
<linearGradient id="paint8_linear_57_174" x1="319.499" y1="453.839" x2="319.499" y2="463.049" gradientUnits="userSpaceOnUse">
<stop stop-color="#1010FF"/>
<stop offset="0.575" stop-color="#0A0A99"/>
</linearGradient>
<linearGradient id="paint9_linear_57_174" x1="408.604" y1="397.042" x2="408.604" y2="404.717" gradientUnits="userSpaceOnUse">
<stop stop-color="#1010FF"/>
<stop offset="0.575" stop-color="#0A0A99"/>
</linearGradient>
<linearGradient id="paint10_linear_57_174" x1="396.522" y1="349.456" x2="396.522" y2="357.131" gradientUnits="userSpaceOnUse">
<stop stop-color="#1010FF"/>
<stop offset="0.575" stop-color="#0A0A99"/>
</linearGradient>
<linearGradient id="paint11_linear_57_174" x1="449.381" y1="357.131" x2="449.381" y2="366.341" gradientUnits="userSpaceOnUse">
<stop stop-color="#1010FF"/>
<stop offset="0.575" stop-color="#0A0A99"/>
</linearGradient>
<linearGradient id="paint12_linear_57_174" x1="484.117" y1="308.009" x2="484.117" y2="315.685" gradientUnits="userSpaceOnUse">
<stop stop-color="#1010FF"/>
<stop offset="0.575" stop-color="#0A0A99"/>
</linearGradient>
<linearGradient id="paint13_linear_57_174" x1="259.088" y1="409.323" x2="259.088" y2="416.998" gradientUnits="userSpaceOnUse">
<stop stop-color="#1010FF"/>
<stop offset="0.575" stop-color="#0A0A99"/>
</linearGradient>
</defs>
</svg>
